<svg xmlns="http://www.w3.org/2000/svg" viewBox="0 0 773.41 637.6">
    <defs>
        <style>
            .cls-2{fill:none;stroke:#dfdfdf;stroke-linecap:round;stroke-linejoin:round;stroke-width:5px}.cls-3{fill:#d37c59}.cls-8{fill:#de8e68}
        </style>
    </defs>
    <g id="Layer_2" data-name="Layer 2">
        <g id="vector">
            <path d="M549.08 50.34c80 19.2 145.79 103.31 144.77 186.24-1 82.75-68.82 164.32-125.57 242.82-56.59 78.51-101.79 154-159 158-57.28 3.94-126.48-63.69-183.74-108.55C168.1 484 122.73 461.9 83.65 422.48s-71.71-96.18-64.07-147 55.57-95.67 105.7-120.14c50.3-24.64 102.63-28.89 176-53.87S469 31 549.08 50.34z"
                  fill="#f8f8f8"/>
            <path class="cls-2"
                  d="M508.59 434.14L404 227.65c-3.19-1.86-16-10.09-16-10.09M396.5 244c-1.25-4.13-5-12.64-5-12.64-2.29-.14-18.23-8.34-18.23-8.34M368.71 223.78l49.56-20.22"/>
            <path d="M12.74 539.2L0 550.97l30.58 40.1 9.46-8.37-14.56-35.68-12.74-7.82zM259.67 502.6L249.14 522l26.14 40.7 11.01-2.84-7.22-53.12-19.4-4.14z"/>
            <ellipse class="cls-3" cx="378.84" cy="216.04" rx="15.56" ry="11.61"/>
            <path d="M171.19 228.3c-7 10-160.83 312.08-160.83 312.08L27.76 551l203-219.68z" fill="#56cad8"/>
            <path class="cls-3"
                  d="M303.72 155c4 3.42 15.72 16.72 19.55 19.14s47.76 29.82 56 32.24S370 216 370 216s-57.23-12.69-61.46-15.51-29.3-23-29.3-28.41S303.72 155 303.72 155z"/>
            <path d="M270.19 129c12.77-13.85 37.71 19 37.17 23.83s-18.18 25.09-29.36 25.09c-3.35 0-16.78-39.19-7.81-48.92z"
                  fill="#fcc486"/>
            <path d="M169.21 231.34c-3 4-16 36-16 47 0 75 111.82 94.46 127.88 94.46-2.32 10.47-26.92 129.39-25.76 132s21.57 7.94 25.76 7.25c16-8.71 67.65-130 63.77-147.25-5.45-24.17-91-94.86-103.36-101.9s-72.29-31.56-72.29-31.56z"
                  fill="#74d5de"/>
            <path d="M243.08 98c86.07 0 19.39 161.78 4.25 170.55-10 5.78-72-16.2-78.64-38.25-2.27-7.53 26.83-132.3 74.39-132.3z"
                  fill="#fed385"/>
            <ellipse class="cls-8" cx="365.74" cy="221.51" rx="15.56" ry="11.61"/>
            <path class="cls-8"
                  d="M215.61 172.7c.21 8.16 2.94 45.61 6.33 46.74 41 13.68 112 7.65 124.26 6.83s20.12-9.45 19.51-11.5S326.54 197 259.6 195.15c-1.24-7.56 1.73-30.41-1.33-32.45s-42.66 10-42.66 10z"/>
            <path d="M227 104.93c35.61-7.28 42 59.2 38.58 64.1s-48.79 11.83-54.71 7.55S200 110.44 227 104.93z"
                  fill="#fed892"/>
            <path class="cls-3"
                  d="M251.23 56.66c-1.64 6.26-12.83 42.1-12.14 44s16.09 10.28 22 9.36c.23-2.73 2.74-17.35 7.88-26.14s-17.74-27.22-17.74-27.22z"/>
            <ellipse class="cls-8" cx="274.54" cy="53.27" rx="34.87" ry="23.17"
                     transform="matrix(.1 -.99 .99 .1 193.7 320.99)"/>
            <path d="M248.74 56.66c-2.62-1.44-7.59-9.92-7.59-17.8 0-12.33 12.29-19.35 20.58-23C268 13.05 273.33 0 287.61 0 299 0 299.76 11.47 305 11.91c13.58 1.13 21.2 1.64 21.2 11.51 0 7.25-9.3 27-28.27 27 0-3.66-1.23-12.75-3.26-17.12-11.4.57-20.68 15.22-36.49 15.16-3.39-.06-9.44 8.2-9.44 8.2z"
                  fill="#fd8369"/>
            <ellipse class="cls-8" cx="254.71" cy="54.23" rx="7.02" ry="8.57"/>
            <path class="cls-2"
                  d="M760.12 512.06H433.4v-70.89c17.87-1.58 271.89-25.58 271.89-25.58V261.46L396.5 244l36.9 197.19"/>
            <circle class="cls-2" cx="459.66" cy="536.07" r="15.16"/>
            <circle class="cls-2" cx="755.75" cy="536.07" r="15.16"/>
            <path class="cls-2"
                  d="M408.56 308.43h296.73M416.76 352.25h288.53M343.62 234.01l25.09-10.23M441.87 352.25c-3.25-9.19-37.73-107.84-37.73-107.84"/>
        </g>
    </g>
</svg>
